<?xml version="1.0" encoding="utf-8"?>
<!-- Generator: Adobe Illustrator 15.0.2, SVG Export Plug-In . SVG Version: 6.00 Build 0)  -->
<!DOCTYPE svg PUBLIC "-//W3C//DTD SVG 1.1 Basic//EN" "http://www.w3.org/Graphics/SVG/1.1/DTD/svg11-basic.dtd">
<svg version="1.1" baseProfile="basic" id="raw" xmlns="http://www.w3.org/2000/svg" xmlns:xlink="http://www.w3.org/1999/xlink"
	 x="0px" y="0px" width="16px" height="16px" viewBox="0 0 16 16" xml:space="preserve">
<g id="completion">
	<path fill="#999999" d="M16,14c0,1.1-0.9,2-2,2H2c-1.1,0-2-0.9-2-2V2c0-1.1,0.9-2,2-2h12c1.1,0,2,0.9,2,2V14z"/>
	<path fill="#FFFFFF" d="M14,12c0,1.104-0.896,2-2,2H4c-1.104,0-2-0.896-2-2V4c0-1.104,0.896-2,2-2h8c1.104,0,2,0.896,2,2V12z"/>
	<g id="cross_copy">
		<path fill="#FFFFFF" d="M5.518,11.261c-0.388-0.39-0.387-1.027,0.001-1.416l8.051-8.051c0.389-0.389,1.025-0.389,1.414,0
			l2.121,2.121c0.389,0.389,0.389,1.025,0,1.415l-8.057,8.062c-0.389,0.389-1.024,0.388-1.412-0.002L5.518,11.261z"/>
		<path fill="#8CAF82" d="M15.691,3.915l-0.707-0.707c-0.389-0.389-1.025-0.389-1.414,0L7.587,9.19L5.437,7.04
			c-0.389-0.389-1.025-0.389-1.414,0L3.316,7.747c-0.389,0.389-0.389,1.025,0,1.415l3.573,3.576c0.389,0.389,1.025,0.389,1.414,0
			l7.389-7.408C16.08,4.94,16.08,4.303,15.691,3.915z"/>
	</g>
</g>
</svg>
